# xmcd
#
# Track frame offsets:
#	225
#	20384
#	34916
#	57448
#	69853
#	82005
#	101246
#	116654
#	138039
#	166468
#	180301
#	194392
#	212242
#	221882
#	238412
#
# Disc length: 3435 seconds
#
# Revision: 0
# Processed by: cddbd v1.5.1PL0 Copyright (c) Steve Scherf et al.
# Submitted via: audiograbber 1.83.01
#
DISCID=df0d680f
DTITLE=Mario Saracino - Canta cazone italiane
DYEAR=1900
DGENRE=
TTITLE0=Caruso
TTITLE1=Tu non puoi
TTITLE2=A chi,Al di la,Amore Scusami
TTITLE3=Lascia stare
TTITLE4=Signorina
TTITLE5=Italo Disco
TTITLE6=La Veritá
TTITLE7=Aranjuez
TTITLE8=C´era una volta il west
TTITLE9=E´stato un sogno
TTITLE10=Io ti amo
TTITLE11=Italo Reggae
TTITLE12=Il vestito di papa
TTITLE13=I tuoi occhi
TTITLE14=La mia via (My Way)
EXTD=
EXTT0=
EXTT1=
EXTT2=
EXTT3=
EXTT4=
EXTT5=
EXTT6=
EXTT7=
EXTT8=
EXTT9=
EXTT10=
EXTT11=
EXTT12=
EXTT13=
EXTT14=
PLAYORDER=
